<svg width="16" height="16" viewBox="0 0 16 16" fill="none" xmlns="http://www.w3.org/2000/svg">
<path d="M13.0781 3.31368C13.3462 3.02515 13.7979 3.00856 14.0865 3.27657C14.3747 3.54463 14.3907 3.99517 14.123 4.28373L6.31764 12.6887C6.18756 12.8287 6.00599 12.911 5.81503 12.9165C5.62424 12.922 5.43926 12.8501 5.30136 12.718L1.90683 9.46407C1.62268 9.19144 1.61345 8.73929 1.886 8.45496C2.15869 8.17103 2.61024 8.16163 2.89446 8.43412L5.74081 11.1633C5.74722 11.1694 5.75608 11.1726 5.7649 11.1724C5.77377 11.1721 5.7823 11.1678 5.78834 11.1613L13.0781 3.31368Z" fill="white"/>
</svg>
