<svg width="15" height="15" viewBox="0 0 15 15" fill="none" xmlns="http://www.w3.org/2000/svg">
<path d="M8.88601 7.67459C8.78557 7.57411 8.78557 7.41333 8.88601 7.32289L14.7514 1.45453C15.0829 1.12293 15.0829 0.580305 14.7514 0.248702C14.42 -0.0829007 13.8776 -0.0829007 13.5462 0.248702L7.67074 6.11707C7.57031 6.21755 7.40961 6.21755 7.31922 6.11707L1.4538 0.248702C1.12236 -0.0829007 0.580013 -0.0829007 0.248577 0.248702C-0.0828591 0.580305 -0.0828591 1.12293 0.248577 1.45453L6.11399 7.32289C6.21443 7.42338 6.21443 7.58416 6.11399 7.67459L0.248577 13.543C-0.0828591 13.8746 -0.0828591 14.4172 0.248577 14.7488C0.419317 14.9196 0.630231 15 0.851189 15C1.07215 15 1.2931 14.9196 1.4538 14.7488L7.31922 8.88042C7.41965 8.77994 7.58035 8.77994 7.67074 8.88042L13.5362 14.7488C13.7069 14.9196 13.9178 15 14.1388 15C14.3597 15 14.5807 14.9196 14.7414 14.7488C15.0728 14.4172 15.0728 13.8746 14.7414 13.543L8.88601 7.67459Z" fill="#303030"/>
</svg>
